<?xml version="1.0" standalone="no"?>
<!DOCTYPE svg PUBLIC "-//W3C//DTD SVG 20010904//EN"
 "http://www.w3.org/TR/2001/REC-SVG-20010904/DTD/svg10.dtd">
<svg version="1.0" xmlns="http://www.w3.org/2000/svg"
 width="180.000000pt" height="62.000000pt" viewBox="0 0 180.000000 62.000000"
 preserveAspectRatio="xMidYMid meet">
<metadata>
Created by potrace 1.16, written by Peter Selinger 2001-2019
</metadata>
<g transform="translate(0.000000,62.000000) scale(0.100000,-0.100000)"
fill="#000000" stroke="none">
<path d="M1407 450 c-6 -15 -87 -401 -87 -414 0 -3 6 -6 14 -6 19 0 20 6 47
180 12 80 25 148 28 153 4 4 15 -44 25 -105 33 -210 37 -228 52 -228 19 0 20
-8 -26 217 -47 227 -46 223 -53 203z"/>
<path d="M237 253 c-4 -3 -7 -55 -7 -115 0 -101 1 -108 20 -108 16 0 20 7 20
35 0 44 14 44 42 0 13 -19 31 -35 41 -35 22 0 22 6 -4 42 l-21 29 21 23 c31
33 28 89 -5 115 -26 20 -93 29 -107 14z"/>
<path d="M810 188 l-1 -73 -64 70 -64 70 -1 -112 c0 -94 3 -113 15 -113 12 0
15 15 15 73 l1 72 62 -68 c34 -37 64 -67 67 -67 3 0 4 49 2 110 -3 88 -6 110
-18 110 -11 0 -14 -16 -14 -72z"/>
<path d="M1120 145 c0 -96 3 -115 15 -115 10 0 15 11 15 35 0 46 22 46 49 0
13 -22 28 -35 41 -35 20 0 20 1 -5 37 -14 21 -21 39 -15 41 13 5 40 56 40 77
0 9 -13 30 -29 46 -23 23 -39 29 -70 29 l-41 0 0 -115z"/>
</g>
</svg>
